<mxfile host="app.diagrams.net" agent="Mozilla/5.0 (Windows NT 10.0; Win64; x64) AppleWebKit/537.36 (KHTML, like Gecko) Chrome/135.0.0.0 Safari/537.36 OPR/120.0.0.0" version="28.1.1">
  <diagram name="Page-1" id="ps0KP391LS-fetbrkxqi">
    <mxGraphModel dx="867" dy="1568" grid="1" gridSize="10" guides="1" tooltips="1" connect="1" arrows="1" fold="1" page="1" pageScale="1" pageWidth="850" pageHeight="1100" math="0" shadow="0">
      <root>
        <mxCell id="0" />
        <mxCell id="1" parent="0" />
        <mxCell id="hlyBN0UT4tkxUrIXFMqf-16" style="edgeStyle=orthogonalEdgeStyle;rounded=0;orthogonalLoop=1;jettySize=auto;html=1;entryX=0.5;entryY=1;entryDx=0;entryDy=0;" edge="1" parent="1" source="hlyBN0UT4tkxUrIXFMqf-1" target="hlyBN0UT4tkxUrIXFMqf-7">
          <mxGeometry relative="1" as="geometry" />
        </mxCell>
        <mxCell id="hlyBN0UT4tkxUrIXFMqf-1" value="&lt;font style=&quot;font-size: 16px;&quot;&gt;Input Embedding&lt;/font&gt;" style="rounded=1;whiteSpace=wrap;html=1;fillColor=#ffe6cc;strokeColor=#d79b00;" vertex="1" parent="1">
          <mxGeometry x="160" y="400" width="120" height="40" as="geometry" />
        </mxCell>
        <mxCell id="hlyBN0UT4tkxUrIXFMqf-17" style="edgeStyle=orthogonalEdgeStyle;rounded=0;orthogonalLoop=1;jettySize=auto;html=1;entryX=0.5;entryY=1;entryDx=0;entryDy=0;" edge="1" parent="1" source="hlyBN0UT4tkxUrIXFMqf-2" target="hlyBN0UT4tkxUrIXFMqf-10">
          <mxGeometry relative="1" as="geometry" />
        </mxCell>
        <mxCell id="hlyBN0UT4tkxUrIXFMqf-36" value="" style="rounded=0;whiteSpace=wrap;html=1;opacity=50;glass=0;shadow=0;fillColor=#dae8fc;strokeColor=#000000;" vertex="1" parent="1">
          <mxGeometry x="120" y="80" width="200" height="250" as="geometry" />
        </mxCell>
        <mxCell id="hlyBN0UT4tkxUrIXFMqf-2" value="&lt;font style=&quot;font-size: 16px;&quot;&gt;Output Embedding&lt;/font&gt;" style="rounded=1;whiteSpace=wrap;html=1;fillColor=#ffe6cc;strokeColor=#d79b00;" vertex="1" parent="1">
          <mxGeometry x="360" y="400" width="120" height="40" as="geometry" />
        </mxCell>
        <mxCell id="hlyBN0UT4tkxUrIXFMqf-5" style="edgeStyle=orthogonalEdgeStyle;rounded=0;orthogonalLoop=1;jettySize=auto;html=1;entryX=0.5;entryY=1;entryDx=0;entryDy=0;" edge="1" parent="1" source="hlyBN0UT4tkxUrIXFMqf-3" target="hlyBN0UT4tkxUrIXFMqf-1">
          <mxGeometry relative="1" as="geometry" />
        </mxCell>
        <mxCell id="hlyBN0UT4tkxUrIXFMqf-3" value="&lt;font style=&quot;font-size: 16px;&quot;&gt;Inputs&lt;/font&gt;" style="text;html=1;align=center;verticalAlign=middle;whiteSpace=wrap;rounded=0;" vertex="1" parent="1">
          <mxGeometry x="190" y="480" width="60" height="20" as="geometry" />
        </mxCell>
        <mxCell id="hlyBN0UT4tkxUrIXFMqf-59" value="" style="rounded=0;whiteSpace=wrap;html=1;opacity=50;glass=0;shadow=0;fillColor=#dae8fc;strokeColor=#000000;" vertex="1" parent="1">
          <mxGeometry x="340" y="-10" width="190" height="340" as="geometry" />
        </mxCell>
        <mxCell id="hlyBN0UT4tkxUrIXFMqf-6" style="edgeStyle=orthogonalEdgeStyle;rounded=0;orthogonalLoop=1;jettySize=auto;html=1;entryX=0.5;entryY=1;entryDx=0;entryDy=0;" edge="1" parent="1" source="hlyBN0UT4tkxUrIXFMqf-4" target="hlyBN0UT4tkxUrIXFMqf-2">
          <mxGeometry relative="1" as="geometry" />
        </mxCell>
        <mxCell id="hlyBN0UT4tkxUrIXFMqf-4" value="&lt;span style=&quot;font-size: 16px;&quot;&gt;Outputs&lt;/span&gt;&lt;div&gt;&lt;span style=&quot;font-size: 16px;&quot;&gt;(Shifted right)&lt;/span&gt;&lt;/div&gt;" style="text;html=1;align=center;verticalAlign=middle;whiteSpace=wrap;rounded=0;" vertex="1" parent="1">
          <mxGeometry x="360" y="480" width="120" height="40" as="geometry" />
        </mxCell>
        <mxCell id="hlyBN0UT4tkxUrIXFMqf-26" style="edgeStyle=orthogonalEdgeStyle;rounded=1;orthogonalLoop=1;jettySize=auto;html=1;entryX=0.5;entryY=1;entryDx=0;entryDy=0;curved=0;" edge="1" parent="1" source="hlyBN0UT4tkxUrIXFMqf-7" target="hlyBN0UT4tkxUrIXFMqf-22">
          <mxGeometry relative="1" as="geometry" />
        </mxCell>
        <mxCell id="hlyBN0UT4tkxUrIXFMqf-45" style="edgeStyle=orthogonalEdgeStyle;rounded=1;orthogonalLoop=1;jettySize=auto;html=1;entryX=0;entryY=0.5;entryDx=0;entryDy=0;curved=0;" edge="1" parent="1" source="hlyBN0UT4tkxUrIXFMqf-7" target="hlyBN0UT4tkxUrIXFMqf-23">
          <mxGeometry relative="1" as="geometry">
            <Array as="points">
              <mxPoint x="220" y="320" />
              <mxPoint x="140" y="320" />
              <mxPoint x="140" y="220" />
            </Array>
          </mxGeometry>
        </mxCell>
        <mxCell id="hlyBN0UT4tkxUrIXFMqf-7" value="" style="shape=orEllipse;perimeter=ellipsePerimeter;whiteSpace=wrap;html=1;backgroundOutline=1;" vertex="1" parent="1">
          <mxGeometry x="210" y="350" width="20" height="20" as="geometry" />
        </mxCell>
        <mxCell id="hlyBN0UT4tkxUrIXFMqf-39" style="edgeStyle=orthogonalEdgeStyle;rounded=1;orthogonalLoop=1;jettySize=auto;html=1;entryX=0.5;entryY=1;entryDx=0;entryDy=0;curved=0;" edge="1" parent="1" source="hlyBN0UT4tkxUrIXFMqf-10" target="hlyBN0UT4tkxUrIXFMqf-37">
          <mxGeometry relative="1" as="geometry" />
        </mxCell>
        <mxCell id="hlyBN0UT4tkxUrIXFMqf-49" style="edgeStyle=orthogonalEdgeStyle;rounded=1;orthogonalLoop=1;jettySize=auto;html=1;entryX=1;entryY=0.5;entryDx=0;entryDy=0;curved=0;" edge="1" parent="1" source="hlyBN0UT4tkxUrIXFMqf-10" target="hlyBN0UT4tkxUrIXFMqf-46">
          <mxGeometry relative="1" as="geometry">
            <Array as="points">
              <mxPoint x="420" y="320" />
              <mxPoint x="500" y="320" />
              <mxPoint x="500" y="200" />
            </Array>
          </mxGeometry>
        </mxCell>
        <mxCell id="hlyBN0UT4tkxUrIXFMqf-10" value="" style="shape=orEllipse;perimeter=ellipsePerimeter;whiteSpace=wrap;html=1;backgroundOutline=1;" vertex="1" parent="1">
          <mxGeometry x="410" y="350" width="20" height="20" as="geometry" />
        </mxCell>
        <mxCell id="hlyBN0UT4tkxUrIXFMqf-18" style="edgeStyle=orthogonalEdgeStyle;rounded=0;orthogonalLoop=1;jettySize=auto;html=1;entryX=0;entryY=0.5;entryDx=0;entryDy=0;endArrow=none;endFill=0;" edge="1" parent="1" source="hlyBN0UT4tkxUrIXFMqf-11" target="hlyBN0UT4tkxUrIXFMqf-7">
          <mxGeometry relative="1" as="geometry" />
        </mxCell>
        <mxCell id="hlyBN0UT4tkxUrIXFMqf-11" value="" style="ellipse;whiteSpace=wrap;html=1;aspect=fixed;" vertex="1" parent="1">
          <mxGeometry x="140" y="340" width="40" height="40" as="geometry" />
        </mxCell>
        <mxCell id="hlyBN0UT4tkxUrIXFMqf-19" style="edgeStyle=orthogonalEdgeStyle;rounded=0;orthogonalLoop=1;jettySize=auto;html=1;entryX=1;entryY=0.5;entryDx=0;entryDy=0;endArrow=none;endFill=0;" edge="1" parent="1" source="hlyBN0UT4tkxUrIXFMqf-12" target="hlyBN0UT4tkxUrIXFMqf-10">
          <mxGeometry relative="1" as="geometry" />
        </mxCell>
        <mxCell id="hlyBN0UT4tkxUrIXFMqf-12" value="" style="ellipse;whiteSpace=wrap;html=1;aspect=fixed;" vertex="1" parent="1">
          <mxGeometry x="460" y="340" width="40" height="40" as="geometry" />
        </mxCell>
        <mxCell id="hlyBN0UT4tkxUrIXFMqf-14" value="" style="endArrow=none;html=1;rounded=0;exitX=0;exitY=0.5;exitDx=0;exitDy=0;entryX=1;entryY=0.5;entryDx=0;entryDy=0;curved=1;" edge="1" parent="1" source="hlyBN0UT4tkxUrIXFMqf-11" target="hlyBN0UT4tkxUrIXFMqf-11">
          <mxGeometry width="50" height="50" relative="1" as="geometry">
            <mxPoint x="400" y="350" as="sourcePoint" />
            <mxPoint x="450" y="300" as="targetPoint" />
            <Array as="points">
              <mxPoint x="150" y="350" />
              <mxPoint x="170" y="370" />
            </Array>
          </mxGeometry>
        </mxCell>
        <mxCell id="hlyBN0UT4tkxUrIXFMqf-15" value="" style="endArrow=none;html=1;rounded=0;exitX=0;exitY=0.5;exitDx=0;exitDy=0;entryX=1;entryY=0.5;entryDx=0;entryDy=0;curved=1;" edge="1" parent="1">
          <mxGeometry width="50" height="50" relative="1" as="geometry">
            <mxPoint x="460" y="360" as="sourcePoint" />
            <mxPoint x="500" y="360" as="targetPoint" />
            <Array as="points">
              <mxPoint x="470" y="350" />
              <mxPoint x="490" y="370" />
            </Array>
          </mxGeometry>
        </mxCell>
        <mxCell id="hlyBN0UT4tkxUrIXFMqf-20" value="&lt;font style=&quot;font-size: 16px;&quot;&gt;Positional Encoding&lt;/font&gt;" style="text;html=1;align=center;verticalAlign=middle;whiteSpace=wrap;rounded=0;" vertex="1" parent="1">
          <mxGeometry x="60" y="345" width="80" height="30" as="geometry" />
        </mxCell>
        <mxCell id="hlyBN0UT4tkxUrIXFMqf-21" value="&lt;font style=&quot;font-size: 16px;&quot;&gt;Positional Encoding&lt;/font&gt;" style="text;html=1;align=center;verticalAlign=middle;whiteSpace=wrap;rounded=0;" vertex="1" parent="1">
          <mxGeometry x="500" y="345" width="80" height="30" as="geometry" />
        </mxCell>
        <mxCell id="hlyBN0UT4tkxUrIXFMqf-32" style="edgeStyle=orthogonalEdgeStyle;rounded=0;orthogonalLoop=1;jettySize=auto;html=1;exitX=0.5;exitY=0;exitDx=0;exitDy=0;entryX=0.5;entryY=1;entryDx=0;entryDy=0;endArrow=none;endFill=0;" edge="1" parent="1" source="hlyBN0UT4tkxUrIXFMqf-22" target="hlyBN0UT4tkxUrIXFMqf-23">
          <mxGeometry relative="1" as="geometry" />
        </mxCell>
        <mxCell id="hlyBN0UT4tkxUrIXFMqf-22" value="&lt;font style=&quot;font-size: 16px;&quot;&gt;Multi Head&lt;br&gt;Attention&lt;/font&gt;" style="rounded=1;whiteSpace=wrap;html=1;fillColor=#d5e8d4;strokeColor=#82b366;" vertex="1" parent="1">
          <mxGeometry x="160" y="240" width="120" height="40" as="geometry" />
        </mxCell>
        <mxCell id="hlyBN0UT4tkxUrIXFMqf-33" style="edgeStyle=orthogonalEdgeStyle;rounded=0;orthogonalLoop=1;jettySize=auto;html=1;entryX=0.5;entryY=1;entryDx=0;entryDy=0;" edge="1" parent="1" source="hlyBN0UT4tkxUrIXFMqf-23" target="hlyBN0UT4tkxUrIXFMqf-24">
          <mxGeometry relative="1" as="geometry" />
        </mxCell>
        <mxCell id="hlyBN0UT4tkxUrIXFMqf-71" style="edgeStyle=orthogonalEdgeStyle;rounded=1;orthogonalLoop=1;jettySize=auto;html=1;entryX=0;entryY=0.5;entryDx=0;entryDy=0;curved=0;" edge="1" parent="1" source="hlyBN0UT4tkxUrIXFMqf-23" target="hlyBN0UT4tkxUrIXFMqf-25">
          <mxGeometry relative="1" as="geometry">
            <Array as="points">
              <mxPoint x="220" y="190" />
              <mxPoint x="140" y="190" />
              <mxPoint x="140" y="110" />
            </Array>
          </mxGeometry>
        </mxCell>
        <mxCell id="hlyBN0UT4tkxUrIXFMqf-23" value="&lt;span style=&quot;font-size: 16px;&quot;&gt;Add &amp;amp; Norm&lt;/span&gt;" style="rounded=1;whiteSpace=wrap;html=1;fillColor=#fff2cc;strokeColor=#d6b656;" vertex="1" parent="1">
          <mxGeometry x="160" y="210" width="120" height="20" as="geometry" />
        </mxCell>
        <mxCell id="hlyBN0UT4tkxUrIXFMqf-35" style="edgeStyle=orthogonalEdgeStyle;rounded=0;orthogonalLoop=1;jettySize=auto;html=1;exitX=0.5;exitY=0;exitDx=0;exitDy=0;entryX=0.5;entryY=1;entryDx=0;entryDy=0;endArrow=none;endFill=0;" edge="1" parent="1" source="hlyBN0UT4tkxUrIXFMqf-24" target="hlyBN0UT4tkxUrIXFMqf-25">
          <mxGeometry relative="1" as="geometry" />
        </mxCell>
        <mxCell id="hlyBN0UT4tkxUrIXFMqf-24" value="&lt;span style=&quot;font-size: 16px;&quot;&gt;Feed&lt;br&gt;Forward&lt;/span&gt;" style="rounded=1;whiteSpace=wrap;html=1;fillColor=#dae8fc;strokeColor=#6c8ebf;" vertex="1" parent="1">
          <mxGeometry x="160" y="130" width="120" height="40" as="geometry" />
        </mxCell>
        <mxCell id="hlyBN0UT4tkxUrIXFMqf-53" style="edgeStyle=orthogonalEdgeStyle;rounded=1;orthogonalLoop=1;jettySize=auto;html=1;entryX=0.25;entryY=1;entryDx=0;entryDy=0;curved=0;" edge="1" parent="1" source="hlyBN0UT4tkxUrIXFMqf-25" target="hlyBN0UT4tkxUrIXFMqf-50">
          <mxGeometry relative="1" as="geometry">
            <Array as="points">
              <mxPoint x="220" y="60" />
              <mxPoint x="330" y="60" />
              <mxPoint x="330" y="180" />
              <mxPoint x="390" y="180" />
            </Array>
          </mxGeometry>
        </mxCell>
        <mxCell id="hlyBN0UT4tkxUrIXFMqf-54" style="edgeStyle=orthogonalEdgeStyle;rounded=1;orthogonalLoop=1;jettySize=auto;html=1;entryX=0.5;entryY=1;entryDx=0;entryDy=0;curved=0;" edge="1" parent="1" target="hlyBN0UT4tkxUrIXFMqf-50">
          <mxGeometry relative="1" as="geometry">
            <mxPoint x="220" y="100" as="sourcePoint" />
            <Array as="points">
              <mxPoint x="220" y="60" />
              <mxPoint x="330" y="60" />
              <mxPoint x="330" y="180" />
              <mxPoint x="420" y="180" />
            </Array>
          </mxGeometry>
        </mxCell>
        <mxCell id="hlyBN0UT4tkxUrIXFMqf-25" value="&lt;span style=&quot;font-size: 16px;&quot;&gt;Add &amp;amp; Norm&lt;/span&gt;" style="rounded=1;whiteSpace=wrap;html=1;fillColor=#fff2cc;strokeColor=#d6b656;" vertex="1" parent="1">
          <mxGeometry x="160" y="100" width="120" height="20" as="geometry" />
        </mxCell>
        <mxCell id="hlyBN0UT4tkxUrIXFMqf-29" style="edgeStyle=orthogonalEdgeStyle;rounded=1;orthogonalLoop=1;jettySize=auto;html=1;curved=0;" edge="1" parent="1" source="hlyBN0UT4tkxUrIXFMqf-7">
          <mxGeometry relative="1" as="geometry">
            <mxPoint x="259" y="280" as="targetPoint" />
            <Array as="points">
              <mxPoint x="220" y="310" />
              <mxPoint x="259" y="310" />
            </Array>
          </mxGeometry>
        </mxCell>
        <mxCell id="hlyBN0UT4tkxUrIXFMqf-30" style="edgeStyle=orthogonalEdgeStyle;rounded=1;orthogonalLoop=1;jettySize=auto;html=1;entryX=0.16;entryY=0.988;entryDx=0;entryDy=0;entryPerimeter=0;curved=0;" edge="1" parent="1" source="hlyBN0UT4tkxUrIXFMqf-7" target="hlyBN0UT4tkxUrIXFMqf-22">
          <mxGeometry relative="1" as="geometry">
            <Array as="points">
              <mxPoint x="220" y="310" />
              <mxPoint x="179" y="310" />
            </Array>
          </mxGeometry>
        </mxCell>
        <mxCell id="hlyBN0UT4tkxUrIXFMqf-48" style="edgeStyle=orthogonalEdgeStyle;rounded=0;orthogonalLoop=1;jettySize=auto;html=1;entryX=0.5;entryY=1;entryDx=0;entryDy=0;endArrow=none;endFill=0;" edge="1" parent="1" source="hlyBN0UT4tkxUrIXFMqf-37" target="hlyBN0UT4tkxUrIXFMqf-46">
          <mxGeometry relative="1" as="geometry" />
        </mxCell>
        <mxCell id="hlyBN0UT4tkxUrIXFMqf-37" value="&lt;font style=&quot;font-size: 16px;&quot;&gt;Masked&lt;br&gt;Multi Head&lt;br&gt;Attention&lt;/font&gt;" style="rounded=1;whiteSpace=wrap;html=1;fillColor=#d5e8d4;strokeColor=#82b366;" vertex="1" parent="1">
          <mxGeometry x="360" y="220" width="120" height="60" as="geometry" />
        </mxCell>
        <mxCell id="hlyBN0UT4tkxUrIXFMqf-42" style="edgeStyle=orthogonalEdgeStyle;rounded=1;orthogonalLoop=1;jettySize=auto;html=1;entryX=0.16;entryY=0.989;entryDx=0;entryDy=0;entryPerimeter=0;curved=0;" edge="1" parent="1" source="hlyBN0UT4tkxUrIXFMqf-10" target="hlyBN0UT4tkxUrIXFMqf-37">
          <mxGeometry relative="1" as="geometry">
            <Array as="points">
              <mxPoint x="420" y="310" />
              <mxPoint x="379" y="310" />
            </Array>
          </mxGeometry>
        </mxCell>
        <mxCell id="hlyBN0UT4tkxUrIXFMqf-43" style="edgeStyle=orthogonalEdgeStyle;rounded=1;orthogonalLoop=1;jettySize=auto;html=1;entryX=0.833;entryY=1;entryDx=0;entryDy=0;entryPerimeter=0;curved=0;" edge="1" parent="1" source="hlyBN0UT4tkxUrIXFMqf-10" target="hlyBN0UT4tkxUrIXFMqf-37">
          <mxGeometry relative="1" as="geometry">
            <Array as="points">
              <mxPoint x="420" y="310" />
              <mxPoint x="460" y="310" />
            </Array>
          </mxGeometry>
        </mxCell>
        <mxCell id="hlyBN0UT4tkxUrIXFMqf-52" style="edgeStyle=orthogonalEdgeStyle;rounded=1;orthogonalLoop=1;jettySize=auto;html=1;entryX=0.75;entryY=1;entryDx=0;entryDy=0;curved=0;" edge="1" parent="1" source="hlyBN0UT4tkxUrIXFMqf-46" target="hlyBN0UT4tkxUrIXFMqf-50">
          <mxGeometry relative="1" as="geometry">
            <Array as="points">
              <mxPoint x="420" y="180" />
              <mxPoint x="450" y="180" />
            </Array>
          </mxGeometry>
        </mxCell>
        <mxCell id="hlyBN0UT4tkxUrIXFMqf-58" style="edgeStyle=orthogonalEdgeStyle;rounded=1;orthogonalLoop=1;jettySize=auto;html=1;entryX=1;entryY=0.5;entryDx=0;entryDy=0;curved=0;" edge="1" parent="1" source="hlyBN0UT4tkxUrIXFMqf-46" target="hlyBN0UT4tkxUrIXFMqf-51">
          <mxGeometry relative="1" as="geometry">
            <Array as="points">
              <mxPoint x="420" y="180" />
              <mxPoint x="500" y="180" />
              <mxPoint x="500" y="100" />
            </Array>
          </mxGeometry>
        </mxCell>
        <mxCell id="hlyBN0UT4tkxUrIXFMqf-46" value="&lt;span style=&quot;font-size: 16px;&quot;&gt;Add &amp;amp; Norm&lt;/span&gt;" style="rounded=1;whiteSpace=wrap;html=1;fillColor=#fff2cc;strokeColor=#d6b656;" vertex="1" parent="1">
          <mxGeometry x="360" y="190" width="120" height="20" as="geometry" />
        </mxCell>
        <mxCell id="hlyBN0UT4tkxUrIXFMqf-55" style="edgeStyle=orthogonalEdgeStyle;rounded=0;orthogonalLoop=1;jettySize=auto;html=1;entryX=0.5;entryY=1;entryDx=0;entryDy=0;endArrow=none;endFill=0;" edge="1" parent="1" source="hlyBN0UT4tkxUrIXFMqf-50" target="hlyBN0UT4tkxUrIXFMqf-51">
          <mxGeometry relative="1" as="geometry" />
        </mxCell>
        <mxCell id="hlyBN0UT4tkxUrIXFMqf-50" value="&lt;font style=&quot;font-size: 16px;&quot;&gt;Multi Head&lt;br&gt;Attention&lt;/font&gt;" style="rounded=1;whiteSpace=wrap;html=1;fillColor=#d5e8d4;strokeColor=#82b366;" vertex="1" parent="1">
          <mxGeometry x="360" y="120" width="120" height="40" as="geometry" />
        </mxCell>
        <mxCell id="hlyBN0UT4tkxUrIXFMqf-60" style="edgeStyle=orthogonalEdgeStyle;rounded=0;orthogonalLoop=1;jettySize=auto;html=1;entryX=0.5;entryY=1;entryDx=0;entryDy=0;" edge="1" parent="1" source="hlyBN0UT4tkxUrIXFMqf-51" target="hlyBN0UT4tkxUrIXFMqf-56">
          <mxGeometry relative="1" as="geometry" />
        </mxCell>
        <mxCell id="hlyBN0UT4tkxUrIXFMqf-61" style="edgeStyle=orthogonalEdgeStyle;rounded=1;orthogonalLoop=1;jettySize=auto;html=1;entryX=1;entryY=0.5;entryDx=0;entryDy=0;curved=0;" edge="1" parent="1" source="hlyBN0UT4tkxUrIXFMqf-51" target="hlyBN0UT4tkxUrIXFMqf-57">
          <mxGeometry relative="1" as="geometry">
            <Array as="points">
              <mxPoint x="420" y="80" />
              <mxPoint x="500" y="80" />
              <mxPoint x="500" y="10" />
            </Array>
          </mxGeometry>
        </mxCell>
        <mxCell id="hlyBN0UT4tkxUrIXFMqf-51" value="&lt;span style=&quot;font-size: 16px;&quot;&gt;Add &amp;amp; Norm&lt;/span&gt;" style="rounded=1;whiteSpace=wrap;html=1;fillColor=#fff2cc;strokeColor=#d6b656;" vertex="1" parent="1">
          <mxGeometry x="360" y="90" width="120" height="20" as="geometry" />
        </mxCell>
        <mxCell id="hlyBN0UT4tkxUrIXFMqf-62" style="edgeStyle=orthogonalEdgeStyle;rounded=0;orthogonalLoop=1;jettySize=auto;html=1;entryX=0.5;entryY=1;entryDx=0;entryDy=0;endArrow=none;endFill=0;" edge="1" parent="1" source="hlyBN0UT4tkxUrIXFMqf-56" target="hlyBN0UT4tkxUrIXFMqf-57">
          <mxGeometry relative="1" as="geometry" />
        </mxCell>
        <mxCell id="hlyBN0UT4tkxUrIXFMqf-56" value="&lt;span style=&quot;font-size: 16px;&quot;&gt;Feed&lt;br&gt;Forward&lt;/span&gt;" style="rounded=1;whiteSpace=wrap;html=1;fillColor=#dae8fc;strokeColor=#6c8ebf;" vertex="1" parent="1">
          <mxGeometry x="360" y="30" width="120" height="40" as="geometry" />
        </mxCell>
        <mxCell id="hlyBN0UT4tkxUrIXFMqf-66" style="edgeStyle=orthogonalEdgeStyle;rounded=0;orthogonalLoop=1;jettySize=auto;html=1;entryX=0.5;entryY=1;entryDx=0;entryDy=0;" edge="1" parent="1" source="hlyBN0UT4tkxUrIXFMqf-57" target="hlyBN0UT4tkxUrIXFMqf-63">
          <mxGeometry relative="1" as="geometry" />
        </mxCell>
        <mxCell id="hlyBN0UT4tkxUrIXFMqf-57" value="&lt;span style=&quot;font-size: 16px;&quot;&gt;Add &amp;amp; Norm&lt;/span&gt;" style="rounded=1;whiteSpace=wrap;html=1;fillColor=#fff2cc;strokeColor=#d6b656;" vertex="1" parent="1">
          <mxGeometry x="360" width="120" height="20" as="geometry" />
        </mxCell>
        <mxCell id="hlyBN0UT4tkxUrIXFMqf-67" style="edgeStyle=orthogonalEdgeStyle;rounded=0;orthogonalLoop=1;jettySize=auto;html=1;entryX=0.5;entryY=1;entryDx=0;entryDy=0;" edge="1" parent="1" source="hlyBN0UT4tkxUrIXFMqf-63" target="hlyBN0UT4tkxUrIXFMqf-64">
          <mxGeometry relative="1" as="geometry" />
        </mxCell>
        <mxCell id="hlyBN0UT4tkxUrIXFMqf-63" value="&lt;span style=&quot;font-size: 16px;&quot;&gt;Linear&lt;/span&gt;" style="rounded=1;whiteSpace=wrap;html=1;fillColor=#f8cecc;strokeColor=#b85450;" vertex="1" parent="1">
          <mxGeometry x="360" y="-50" width="120" height="20" as="geometry" />
        </mxCell>
        <mxCell id="hlyBN0UT4tkxUrIXFMqf-68" style="edgeStyle=orthogonalEdgeStyle;rounded=0;orthogonalLoop=1;jettySize=auto;html=1;entryX=0.5;entryY=1;entryDx=0;entryDy=0;" edge="1" parent="1" source="hlyBN0UT4tkxUrIXFMqf-64" target="hlyBN0UT4tkxUrIXFMqf-65">
          <mxGeometry relative="1" as="geometry" />
        </mxCell>
        <mxCell id="hlyBN0UT4tkxUrIXFMqf-64" value="&lt;span style=&quot;font-size: 16px;&quot;&gt;Softmax&lt;/span&gt;" style="rounded=1;whiteSpace=wrap;html=1;fillColor=#e1d5e7;strokeColor=#9673a6;" vertex="1" parent="1">
          <mxGeometry x="360" y="-90" width="120" height="20" as="geometry" />
        </mxCell>
        <mxCell id="hlyBN0UT4tkxUrIXFMqf-65" value="&lt;span style=&quot;font-size: 16px;&quot;&gt;Outputs&lt;/span&gt;&lt;div&gt;&lt;span style=&quot;font-size: 16px;&quot;&gt;Probabilities&lt;/span&gt;&lt;/div&gt;" style="text;html=1;align=center;verticalAlign=middle;whiteSpace=wrap;rounded=0;" vertex="1" parent="1">
          <mxGeometry x="360" y="-150" width="120" height="40" as="geometry" />
        </mxCell>
        <mxCell id="hlyBN0UT4tkxUrIXFMqf-69" value="&lt;font style=&quot;font-size: 16px;&quot;&gt;Nx&lt;/font&gt;" style="text;html=1;align=center;verticalAlign=middle;whiteSpace=wrap;rounded=0;" vertex="1" parent="1">
          <mxGeometry x="90" y="185" width="30" height="30" as="geometry" />
        </mxCell>
        <mxCell id="hlyBN0UT4tkxUrIXFMqf-70" value="&lt;font style=&quot;font-size: 16px;&quot;&gt;Nx&lt;/font&gt;" style="text;html=1;align=center;verticalAlign=middle;whiteSpace=wrap;rounded=0;" vertex="1" parent="1">
          <mxGeometry x="530" y="145" width="30" height="30" as="geometry" />
        </mxCell>
      </root>
    </mxGraphModel>
  </diagram>
</mxfile>
